HIERARCHY
ROOT Hips
{
	OFFSET	0.00	0.00	0.00
	CHANNELS 6 Xposition Yposition Zposition Zrotation Xrotation Yrotation
	JOINT Spine
	{
		OFFSET	 0.00	0.01	 0.00
		CHANNELS 3 Zrotation Xrotation Yrotation
		JOINT Spine1
		{
			OFFSET	 0.00	 2.45913012437421	 0.00
			CHANNELS 3 Zrotation Xrotation Yrotation
            JOINT Neck
            {
                OFFSET	 0.00	 2.48462964506057	 0.00
                CHANNELS 3 Zrotation Xrotation Yrotation
                JOINT Head
                {
                    OFFSET	 0.00	 0.927524780924562	 0.00
                    CHANNELS 3 Zrotation Xrotation Yrotation
                    End Site 
                    {
                        OFFSET	 0.00	 1.14999962169752	 0.00
                    }
                }
            }
			JOINT LeftShoulder
			{
				OFFSET	 0.00	 2.48462964506057	 0.00
				CHANNELS 3 Zrotation Xrotation Yrotation
				JOINT LeftUpArm
				{
					OFFSET	 0.00	 1.24881979654096	 0.00
					CHANNELS 3 Zrotation Xrotation Yrotation
					JOINT LeftForeArm
					{
						OFFSET	 0.00	2.59758046908119	 0.00
						CHANNELS 3 Zrotation Xrotation Yrotation
						JOINT LeftHand
						{
							OFFSET	 0.00	2.45542024364365	 0.00
							CHANNELS 3 Zrotation Xrotation Yrotation
							JOINT LeftHandThumb 
							{
								OFFSET	 0.00	0.00	 0.00
								CHANNELS 3 Zrotation Xrotation Yrotation
								End Site
								{
									OFFSET	 0.00	0.00	1.00000003353624
								}
							}
							JOINT L_Wrist_End 
							{
								OFFSET	 0.00	0.99999967115358	 0.00
								CHANNELS 3 Zrotation Xrotation Yrotation
								End Site 
								{
									OFFSET	 0.00	 0.00	 0.00
								}
							}
						}
					}
				}
			}
			JOINT RightShoulder
			{
				OFFSET	 0.00	 2.48462964506057	 0.00
				CHANNELS 3 Zrotation Xrotation Yrotation
				JOINT RightUpArm
				{
					OFFSET	 0.00	 1.24881979654096	 0.00
					CHANNELS 3 Zrotation Xrotation Yrotation
					JOINT RightForeArm
					{
						OFFSET	 0.00	2.59758046908119	 0.00
						CHANNELS 3 Zrotation Xrotation Yrotation
						JOINT RightHand
						{
							OFFSET	 0.00	2.45542024364365	 0.00
							CHANNELS 3 Zrotation Xrotation Yrotation
							JOINT RightHandThumb 
							{
								OFFSET	 0.00	0.00	 0.00
								CHANNELS 3 Zrotation Xrotation Yrotation
								End Site
								{
									OFFSET	 0.00	0.00	1.00000003353624
								}
							}
							JOINT R_Wrist_End 
							{
								OFFSET	 0.00	0.99999967115358	 0.00
								CHANNELS 3 Zrotation Xrotation Yrotation
								End Site 
								{
									OFFSET	 0.00	 0.00	 0.00
								}
							}
						}
					}
				}
			}
		}
	}
	JOINT LeftUpLeg
	{
		OFFSET	 1.2719394002717	 0.00	 0.00
		CHANNELS 3 Zrotation Xrotation Yrotation
		JOINT LeftLowLeg
		{
			OFFSET	 0.00	-4.3429100912261	 0.00
			CHANNELS 3 Zrotation Xrotation Yrotation
			JOINT LeftFoot
			{
				OFFSET	 0.00	-4.48767017425826	 0.00
				CHANNELS 3 Zrotation Xrotation Yrotation
				JOINT LeftToeBase
                {
                    OFFSET	 0.00	0.00	 1.51507020887566
                    CHANNELS 3 Zrotation Xrotation Yrotation
                    End Site 
                    {
                        OFFSET	 0.00	0.00	 0.75000010571191
                    }
                }
			}
		}
	}
	JOINT RightUpLeg
	{
		OFFSET	 -1.2719393604653	 0.00	 0.00
		CHANNELS 3 Zrotation Xrotation Yrotation
		JOINT RightLowLeg
		{
			OFFSET	 0.00	-4.3429100912261	 0.00
			CHANNELS 3 Zrotation Xrotation Yrotation
			JOINT RightFoot
			{
				OFFSET	 0.00	-4.48767017425826	 0.00
				CHANNELS 3 Zrotation Xrotation Yrotation
				JOINT RightToeBase
                {
                    OFFSET	 0.00	0.00	 1.51507020887566
                    CHANNELS 3 Zrotation Xrotation Yrotation
                    End Site 
                    {
                        OFFSET	 0.00	0.00	 0.749999965609858
                    }
                }   
			}
		}
	}
}
MOTION 
Frames:	11 
Frame Time: 0.02 
  -4.769299926757813 10.13010009765625 9.323720092773437 32.6503 79.1837 483.5 5.48617 -12.5959 6.64329 -1.29534 14.3941 2.02652 30.8634 24.2753 -49.547 93.5781 -47.5119 829.822 -105.815796 -1.62373 5.91214 -26.8911 -1.98932 78.2442 0.0 78.7095 0.0 98.2429 40.8118 -15.2145 0.0 0.0 0.0 0.0 0.0 0.0 105.8636 -9.79624 1.82537 52.98 51.6386 -364.82 0.0 140.548 0.0 -76.7948 51.6081 -8.80603 0.0 0.0 0.0 0.0 0.0 0.0 0.648758 -4.75462 -12.014 0.0 17.4705 0.0 1.51451 -9.919399 12.3241 0.0 -11.34169 0.0 9.88788 -22.5409 378.34 0.0 7.53419 0.0 7.82539 4.1291 -16.8303 0.0 -28.120499 0.0 
  -4.728880004882813 10.223300170898437 9.313469848632813 32.6826 79.2074 483.807 5.82499 -12.7354 6.71754 -1.47512 14.3735 1.8481 29.2381 24.677 -49.6503 94.362 -48.6216 831.093 -106.2555 -1.67373 6.0686 -26.6016 -1.04225 79.097 0.0 78.0868 0.0 100.15 40.0357 -16.6829 0.0 0.0 0.0 0.0 0.0 0.0 106.3611 -9.8439 1.75697 50.5468 52.9937 -362.67 0.0 140.588 0.0 -73.876 48.9668 -10.2268 0.0 0.0 0.0 0.0 0.0 0.0 0.707239 -3.89913 -11.9934 0.0 16.9799 0.0 1.55787 -10.2216 12.008 0.0 -11.4227 0.0 9.48424 -22.7055 378.103 0.0 5.61127 0.0 7.04246 4.3367004 -17.1188 0.0 -27.5851 0.0 
  -4.685390014648437 10.319100341796876 9.299509887695313 32.709 79.2835 484.129 6.14903 -12.9049 6.83634 -1.68421 14.3837 1.73309 27.7576 24.9759 -49.9695 95.238 -49.6851 832.695 -106.6814 -1.5619 6.2568 -26.3066 -0.134896 80.0669 0.0 77.6502 0.0 102.103 38.7768 -18.2195 0.0 0.0 0.0 0.0 0.0 0.0 106.7875 -9.90914 1.84796 47.9661 54.254 -360.073 0.0 140.451 0.0 -70.8632 46.9072 -11.9157 0.0 0.0 0.0 0.0 0.0 0.0 0.747126 -2.94327 -11.9078 0.0 16.3852 0.0 1.61417 -10.565201 11.6742 0.0 -11.4343605 0.0 9.11938 -22.8831 378.023 0.0 4.3013 0.0 6.80816 4.2510996 -17.4963 0.0 -27.8642 0.0 
  -4.638349914550782 10.416199951171874 9.283829956054687 32.4244 79.3792 484.799 6.40655 -13.1196 6.92738 -1.89277 14.4007 1.63728 26.2448 25.2622 -50.2011 96.5137 -50.6779 834.495 -107.1769 -1.47311 6.49429 -25.9045 0.749793 81.0925 0.0 77.432 0.0 104.264 36.8861 -19.4023 0.0 0.0 0.0 0.0 0.0 0.0 107.0229 -9.84389 2.22184 45.4078 55.1606 -357.291 0.0 140.391 0.0 -67.9896 44.7162 -12.9797 0.0 0.0 0.0 0.0 0.0 0.0 0.764498 -2.07878 -11.7954 0.0 15.9329 0.0 1.56283 -10.934099 11.175 0.0 -11.47946 0.0 8.81844 -23.1905 377.636 0.0 3.69959 0.0 6.81252 3.9778996 -17.8729 0.0 -27.5864 0.0 
  -4.586589965820313 10.51530029296875 9.26698974609375 32.5133 79.4861 485.12 6.68911 -13.2499 7.02813 -2.13734 14.3844 1.50419 24.6669 25.4485 -50.2556 98.0634 -51.5451 836.286 -107.708 -1.43124 6.6468 -25.2836 1.50921 82.0062 0.0 77.3635 0.0 105.978 35.587 -20.2196 0.0 0.0 0.0 0.0 0.0 0.0 107.5268 -9.79749 2.03567 41.5303 56.6394 -353.276 0.0 140.19 0.0 -65.2257 42.4813 -14.067 0.0 0.0 0.0 0.0 0.0 0.0 0.861235 -1.13068 -11.581 0.0 15.4729 0.0 1.24728 -11.3475 10.4316 0.0 -11.72102 0.0 8.65278 -23.5015 377.102 0.0 3.81068 0.0 6.96419 3.7161999 -18.2736 0.0 -27.008701 0.0 
  -4.529140014648437 10.618199462890624 9.249400024414063 32.8752 79.5953 485.115 6.95116 -13.4059 7.12483 -2.34453 14.3802 1.39788 23.3714 25.6234 -50.5583 99.6275 -52.3833 838.147 -108.2341 -1.2661 6.86788 -24.5272 1.94613 82.657 0.0 77.4831 0.0 106.956 34.6887 -20.4243 0.0 0.0 0.0 0.0 0.0 0.0 107.8319 -9.5246 2.05305 37.5424 57.6075 -349.188 0.0 140.052 0.0 -63.101 40.2104 -14.5161 0.0 0.0 0.0 0.0 0.0 0.0 1.01202 -0.150771 -11.3011 0.0 15.1265 0.0 1.24683 -11.8183 9.82999 0.0 -11.68166 0.0 8.6396 -23.8281 376.407 0.0 4.61208 0.0 6.61067 3.7686005 -18.5285 0.0 -26.8318 0.0 
  -4.466510009765625 10.72550048828125 9.23031982421875 33.4277 79.6759 484.956 7.26021 -13.6106 7.19747 -2.62594 14.4427 1.21456 21.7901 25.6978 -50.3603 101.086 -53.0835 839.549 -108.6203 -1.22185 6.96606 -23.75 2.26757 83.2343 0.0 77.7073 0.0 107.42 34.0748 -20.475 0.0 0.0 0.0 0.0 0.0 0.0 108.0939 -9.20251 2.07327 33.4031 58.4874 -344.987 0.0 139.865 0.0 -61.0202 38.1503 -14.4455 0.0 0.0 0.0 0.0 0.0 0.0 1.19483 0.840248 -11.281 0.0 14.8591 0.0 1.13844 -12.319099 9.38875 0.0 -11.77644 0.0 8.74601 -24.0711 375.858 0.0 5.77705 0.0 6.39177 3.9174004 -18.8197 0.0 -26.8861 0.0 
  -4.397650146484375 10.83780029296875 9.2089697265625 33.386 79.6742 485.424 7.47621 -14.0022 7.18469 -2.77289 14.471 1.07048 20.4566 25.5591 -50.5612 102.127 -53.7929 840.875 -108.9862 -1.11619 6.99679 -22.9615 2.36087 83.7613 0.0 78.0807 0.0 107.219 33.4461 -20.2779 0.0 0.0 0.0 0.0 0.0 0.0 108.1904 -9.00335 2.14844 29.4354 59.2557 -341.0 0.0 139.602 0.0 -59.1348 36.3018 -14.5337 0.0 0.0 0.0 0.0 0.0 0.0 1.3674 1.65398 -11.488 0.0 14.771 0.0 1.09994 -12.8612995 9.21655 0.0 -11.89118 0.0 8.96028 -24.3088 375.515 0.0 7.13757 0.0 6.06959 4.1899004 -19.206 0.0 -26.4959 0.0 
  -4.323659973144531 10.954300537109376 9.184819946289062 33.1736 79.6264 486.151 7.72129 -14.4684 7.15461 -3.01526 14.3266 0.84498 19.0716 25.5495 -50.5668 102.774 -54.4208 842.089 -109.071396 -0.922362 7.0837 -22.4689 2.24879 84.1432 0.0 78.4069 0.0 106.851 33.0732 -19.8433 0.0 0.0 0.0 0.0 0.0 0.0 108.2806 -8.6608 1.98338 25.1844 59.7893 -336.666 0.0 139.209 0.0 -57.646 35.2852 -14.7804 0.0 0.0 0.0 0.0 0.0 0.0 1.5676 2.32496 -11.7911 0.0 14.9102 0.0 1.05727 -13.484301 9.05726 0.0 -12.03954 0.0 9.23999 -24.4308 375.312 0.0 8.51978 0.0 6.00903 4.726 -19.4497 0.0 -26.7714 0.0 
  -4.2425100708007815 11.0768994140625 9.160579833984375 32.8434 79.518 486.991 7.87337 -14.9623 7.04149 -3.08308 14.0022 0.627467 17.4657 25.7954 -50.3544 103.805 -55.2947 843.017 -109.2079 -0.841167 7.16917 -22.0472 2.104 84.5358 0.0 78.6874 0.0 106.444 32.7645 -19.5718 0.0 0.0 0.0 0.0 0.0 0.0 108.4999 -8.31003 1.83506 20.7527 60.1752 -332.367 0.0 138.865 0.0 -56.3812 34.4167 -15.1655 0.0 0.0 0.0 0.0 0.0 0.0 1.82649 2.97296 -12.1879 0.0 15.0957 0.0 1.07411 -14.0616 8.99859 0.0 -12.19614 0.0 9.67458 -24.4097 375.658 0.0 9.94174 0.0 6.39082 5.2623196 -19.5155 0.0 -27.324799 0.0 
  -4.155589904785156 11.204200439453125 9.134130249023437 32.5963 79.4109 487.742 7.98452 -15.621 6.8873 -3.05608 13.7826 0.469347 15.8478 26.0332 -50.2156 104.374 -56.2089 843.839 -109.2775 -0.620034 7.25032 -21.8318 1.89751 84.8653 0.0 78.9384 0.0 106.141 32.3936 -19.4378 0.0 0.0 0.0 0.0 0.0 0.0 108.7264 -7.79395 1.87927 16.5581 60.2865 -328.362 0.0 138.463 0.0 -55.0016 33.4532 -15.9002 0.0 0.0 0.0 0.0 0.0 0.0 2.11572 3.61178 -12.5226 0.0 15.4149 0.0 1.04379 -14.6859 8.89915 0.0 -12.33263 0.0 10.2167 -24.2601 376.409 0.0 11.3305 0.0 5.91202 5.7777395 -19.2389 0.0 -27.7509 0.0 
